<?xml version="1.0" encoding="utf-8"?>
<!-- Generator: Adobe Illustrator 27.5.0, SVG Export Plug-In . SVG Version: 6.00 Build 0)  -->
<svg version="1.1" id="Layer_1" xmlns="http://www.w3.org/2000/svg" xmlns:xlink="http://www.w3.org/1999/xlink" x="0px" y="0px"
	 viewBox="0 0 200 140" style="enable-background:new 0 0 200 140;" xml:space="preserve">
<style type="text/css">
	.st0{enable-background:new    ;}
</style>
<g>
	<g class="st0">
		<path d="M3.5,32.5C5,29.8,7,27.8,9.7,26.2c2.6-1.5,5.6-2.2,9-2.2c4.1,0,7.6,1.1,10.5,3.3c2.9,2.2,4.9,5.1,5.9,8.9h-9.3
			c-0.7-1.4-1.7-2.5-2.9-3.3c-1.3-0.8-2.7-1.1-4.3-1.1c-2.6,0-4.7,0.9-6.3,2.7s-2.4,4.2-2.4,7.2s0.8,5.4,2.4,7.2s3.7,2.7,6.3,2.7
			c1.6,0,3-0.4,4.3-1.1c1.3-0.8,2.2-1.9,2.9-3.3H35c-1,3.7-2.9,6.7-5.9,8.8c-2.9,2.2-6.4,3.2-10.5,3.2c-3.3,0-6.3-0.7-9-2.2
			s-4.7-3.6-6.2-6.2c-1.5-2.7-2.2-5.7-2.2-9.1C1.3,38.2,2,35.2,3.5,32.5z"/>
		<path d="M57.8,59l-7.2-13h-2v13h-8.4V24.4h14.1c2.7,0,5,0.5,7,1.4c1.9,1,3.4,2.3,4.3,3.9c1,1.6,1.4,3.5,1.4,5.5
			c0,2.3-0.7,4.4-1.9,6.2c-1.3,1.8-3.2,3.1-5.7,3.8l8,13.7L57.8,59L57.8,59z M48.6,40h5.2c1.5,0,2.7-0.4,3.5-1.1s1.2-1.8,1.2-3.2
			c0-1.3-0.4-2.3-1.2-3.1s-1.9-1.1-3.5-1.1h-5.2V40z"/>
		<path d="M101.9,24.4l-12,23.1v11.4h-8.4V47.5L69.6,24.4h9.5l6.7,14.5l6.6-14.5C92.4,24.3,101.9,24.3,101.9,24.4z"/>
		<path d="M130.2,41c-0.9,1.6-2.3,3-4.2,4c-1.9,1-4.3,1.5-7.1,1.5h-5.2v12.4h-8.4V24.4h13.6c2.7,0,5.1,0.5,7,1.4
			c1.9,1,3.3,2.3,4.3,3.9c1,1.7,1.4,3.6,1.4,5.8C131.6,37.5,131.1,39.3,130.2,41z M121.9,38.7c0.8-0.8,1.2-1.8,1.2-3.2
			s-0.4-2.5-1.2-3.2c-0.8-0.8-2-1.1-3.6-1.1h-4.6v8.6h4.6C119.9,39.8,121.1,39.5,121.9,38.7z"/>
		<path d="M160.8,24.4V31h-9.2v27.8h-8.4V31.1H134v-6.7h26.8V24.4z"/>
		<path d="M172.4,57c-2.7-1.5-4.9-3.6-6.4-6.3s-2.4-5.8-2.4-9.1c0-3.4,0.8-6.4,2.4-9.1s3.7-4.8,6.4-6.3s5.7-2.3,8.9-2.3
			c3.3,0,6.2,0.8,8.9,2.3s4.8,3.6,6.4,6.3c1.6,2.7,2.3,5.7,2.3,9.1c0,3.4-0.8,6.4-2.4,9.1c-1.6,2.7-3.7,4.8-6.4,6.3
			s-5.7,2.3-8.9,2.3C178.1,59.2,175.1,58.5,172.4,57z M188,48.8c1.6-1.8,2.5-4.3,2.5-7.3s-0.8-5.5-2.5-7.3c-1.6-1.8-3.9-2.7-6.6-2.7
			c-2.8,0-5,0.9-6.7,2.7c-1.6,1.8-2.5,4.3-2.5,7.3s0.8,5.5,2.5,7.3c1.6,1.8,3.9,2.7,6.7,2.7C184.1,51.5,186.3,50.7,188,48.8z"/>
	</g>
	<g class="st0">
		<path d="M22.9,100.2c3.1-2.8,5.7-5.8,7.8-8.8c2.1-3.1,3.2-6.1,3.2-9c0-2.8-0.7-5-2-6.6c-1.4-1.6-3.5-2.4-6.5-2.4
			c-2.9,0-5.2,0.9-6.8,2.7c-1.6,1.8-2.5,4.3-2.6,7.3h-5.7c0.2-4.8,1.6-8.5,4.4-11.1c2.7-2.6,6.3-3.9,10.6-3.9
			c4.4,0,7.9,1.2,10.5,3.7s3.9,5.8,3.9,10.1c0,3.6-1.1,7-3.2,10.4c-2.1,3.4-4.5,6.3-7.2,8.9s-6.2,5.5-10.4,8.9H41v4.9H10.1v-4.2
			C15.5,106.7,19.8,103.1,22.9,100.2z"/>
		<path d="M61.5,74.8c2.4-4.1,6.6-6.2,12.6-6.2s10.2,2.1,12.5,6.2c2.4,4.1,3.6,9.9,3.6,17.3c0,7.5-1.2,13.3-3.6,17.5
			s-6.6,6.2-12.5,6.2c-6,0-10.2-2.1-12.6-6.2c-2.4-4.2-3.6-10-3.6-17.5C57.9,84.7,59.1,78.8,61.5,74.8z M83.7,82.4
			c-0.5-2.6-1.5-4.7-3-6.3c-1.5-1.6-3.7-2.4-6.6-2.4s-5.1,0.8-6.7,2.4s-2.5,3.7-3,6.3c-0.5,2.6-0.7,5.8-0.7,9.5
			c0,3.9,0.3,7.1,0.7,9.7c0.5,2.6,1.5,4.7,3,6.3c1.5,1.6,3.7,2.4,6.7,2.4c2.9,0,5.1-0.8,6.6-2.4s2.5-3.7,3-6.3
			c0.5-2.6,0.7-5.9,0.7-9.7C84.5,88.2,84.2,85.1,83.7,82.4z"/>
		<path d="M112.8,71.7c2.7-2.2,6.3-3.3,10.7-3.3c2.9,0,5.4,0.5,7.5,1.6s3.7,2.5,4.8,4.3s1.6,3.8,1.6,6.1c0,2.7-0.8,4.9-2.3,6.9
			c-1.5,1.9-3.5,3.2-5.9,3.7v0.3c2.8,0.7,5,2,6.6,4.1c1.6,2,2.5,4.7,2.5,7.9c0,2.5-0.5,4.7-1.7,6.6c-1.1,1.9-2.8,3.5-5,4.6
			s-4.9,1.7-8,1.7c-4.5,0-8.3-1.2-11.2-3.6c-2.9-2.4-4.5-5.8-4.9-10.1h5.7c0.3,2.6,1.4,4.7,3.2,6.3c1.8,1.6,4.2,2.5,7.2,2.5
			s5.3-0.8,6.9-2.3c1.6-1.6,2.3-3.6,2.3-6.1c0-3.2-1.1-5.5-3.2-7c-2.1-1.4-5.4-2.1-9.7-2.1h-1.5v-4.9h1.5c4,0,6.9-0.7,8.9-2
			c2-1.3,3-3.2,3-5.9c0-2.3-0.7-4.1-2.2-5.5s-3.6-2.1-6.3-2.1c-2.7,0-4.8,0.7-6.4,2.1s-2.6,3.2-2.9,5.5h-5.7
			C108.6,76.9,110.1,73.8,112.8,71.7z"/>
		<path d="M160,74.8c2.4-4.1,6.6-6.2,12.6-6.2s10.2,2.1,12.5,6.2c2.4,4.1,3.6,9.9,3.6,17.3c0,7.5-1.2,13.3-3.6,17.5
			c-2.4,4.2-6.6,6.2-12.5,6.2c-6,0-10.2-2.1-12.6-6.2c-2.4-4.2-3.6-10-3.6-17.5C156.4,84.7,157.6,78.8,160,74.8z M182.2,82.4
			c-0.5-2.6-1.5-4.7-3-6.3c-1.5-1.6-3.7-2.4-6.6-2.4c-2.9,0-5.1,0.8-6.7,2.4c-1.5,1.6-2.5,3.7-3,6.3c-0.5,2.6-0.7,5.8-0.7,9.5
			c0,3.9,0.3,7.1,0.7,9.7c0.5,2.6,1.5,4.7,3,6.3c1.5,1.6,3.7,2.4,6.7,2.4c2.9,0,5.1-0.8,6.6-2.4s2.5-3.7,3-6.3
			c0.5-2.6,0.7-5.9,0.7-9.7C183,88.2,182.7,85.1,182.2,82.4z"/>
	</g>
</g>
</svg>
